<svg width="40" height="40" viewBox="0 0 40 40" fill="none" xmlns="http://www.w3.org/2000/svg">
<path d="M16 26.4445C13.3333 26.7408 8 26.2667 8 22C8 18.4444 9.77778 17.5556 12.4444 17.5556C12.4444 14.4444 13.0562 10 19.1111 10C23.5556 10 24.8889 12.2222 25.3333 15.7778C29.3333 15.7778 32 16.6667 32 20.6667C32 25.4104 26.8148 26.1482 24.8889 26" stroke="black" stroke-width="2" stroke-linecap="round"/>
<path d="M21.1514 16.8484C20.7609 16.4579 20.1278 16.4579 19.7372 16.8484L13.3733 23.2124C12.9827 23.6029 12.9827 24.2361 13.3733 24.6266C13.7638 25.0171 14.397 25.0171 14.7875 24.6266L20.4443 18.9697L26.1012 24.6266C26.4917 25.0171 27.1249 25.0171 27.5154 24.6266C27.9059 24.2361 27.9059 23.6029 27.5154 23.2124L21.1514 16.8484ZM21.4443 29.1111L21.4443 17.5555L19.4443 17.5555L19.4443 29.1111L21.4443 29.1111Z" fill="black"/>
</svg>
