<svg width="29" height="23" viewBox="0 0 29 23" fill="none" xmlns="http://www.w3.org/2000/svg">
<path d="M10 19.5C7 19.8333 1 19.3 1 14.5C1 10.5 3 9.50001 6 9.50001C6 6 6.68825 1 13.5 1C18.5 1 20 3.5 20.5 7.5C25 7.5 28 8.5 28 13C28 18.3367 22.1667 19.1667 20 19" stroke="#909BA8" stroke-width="2" stroke-linecap="round"/>
<path d="M15.7071 8.79289C15.3166 8.40237 14.6834 8.40237 14.2929 8.79289L7.92893 15.1569C7.53841 15.5474 7.53841 16.1805 7.92893 16.5711C8.31946 16.9616 8.95262 16.9616 9.34315 16.5711L15 10.9142L20.6569 16.5711C21.0474 16.9616 21.6805 16.9616 22.0711 16.5711C22.4616 16.1805 22.4616 15.5474 22.0711 15.1569L15.7071 8.79289ZM16 22.5L16 9.5L14 9.5L14 22.5L16 22.5Z" fill="#909BA8"/>
</svg>
