<svg width="38" height="18" viewBox="0 0 38 18" fill="none" xmlns="http://www.w3.org/2000/svg">
<g clip-path="url(#clip0_207_998)">
<path d="M13.3618 2.82966V0.243896H1.4013C0.755246 0.243896 0.231445 0.793408 0.231445 1.47117V16.5671C0.231445 17.2449 0.755246 17.7944 1.4013 17.7944H15.7909C16.4369 17.7944 16.9607 17.2449 16.9607 16.5671V4.05693H14.5315C13.8856 4.05693 13.3618 3.50742 13.3618 2.82966Z" fill="white"/>
<path d="M15.791 18.05H1.4013C0.621889 18.05 -0.0122681 17.3847 -0.0122681 16.5671V1.47111C-0.0122681 0.653443 0.621889 -0.0118408 1.4013 -0.0118408H13.3618C13.4964 -0.0118408 13.6055 0.102602 13.6055 0.243841V2.8296C13.6055 3.36531 14.021 3.80119 14.5316 3.80119H16.9608C17.0954 3.80119 17.2045 3.91564 17.2045 4.05687V16.5671C17.2045 17.3847 16.5704 18.05 15.791 18.05ZM1.4013 0.499523C0.890662 0.499523 0.47517 0.935409 0.47517 1.47111V16.5671C0.47517 17.1028 0.890662 17.5387 1.4013 17.5387H15.7909C16.3015 17.5387 16.717 17.1028 16.717 16.5671V4.31256H14.5315C13.7521 4.31256 13.1179 3.64727 13.1179 2.8296V0.499523H1.4013Z" fill="#CD1518"/>
<path d="M14.3877 4.34695C13.6427 4.34695 13.0368 3.71112 13.0368 2.92975V0.482469C13.0368 0.378764 13.0965 0.285389 13.1878 0.245912C13.2179 0.233025 13.2494 0.226685 13.2805 0.226685C13.3444 0.226685 13.4071 0.252969 13.4538 0.302469L16.8599 3.91126C16.9291 3.98459 16.9495 4.09433 16.9117 4.18955C16.8738 4.28487 16.7851 4.34684 16.6867 4.34684L14.3877 4.34695Z" fill="white"/>
<path d="M13.2805 0.482433L16.6867 4.09123H14.3877C13.7763 4.09123 13.2805 3.57107 13.2805 2.92972V0.482433ZM13.2804 -0.0289307C13.218 -0.0289307 13.1551 -0.0163511 13.0952 0.00952389C12.9124 0.0883762 12.7931 0.275229 12.7931 0.482433V2.92972C12.7931 3.85222 13.5085 4.60259 14.3877 4.60259H16.6867C16.8835 4.60259 17.0609 4.47854 17.1366 4.2881C17.2123 4.09767 17.1715 3.87809 17.033 3.73154L13.6268 0.122638C13.5335 0.0236375 13.4081 -0.0289307 13.2804 -0.0289307Z" fill="#CD1518"/>
<path d="M3.37959 16.0153C3.37949 16.0153 3.37959 16.0153 3.37959 16.0153C3.12739 16.0151 2.8863 15.9107 2.66306 15.7046C2.35431 15.4196 2.22465 15.0277 2.29806 14.6011C2.47871 13.5524 3.8217 12.4712 6.0838 11.5507C6.31055 10.8985 7.07125 8.66286 7.58628 6.57384C7.14515 5.58906 6.28453 3.40308 6.85522 2.45389C6.97347 2.25722 7.20861 2.02271 7.65686 2.02271C7.72861 2.02271 7.80484 2.02884 7.88332 2.04091C8.08064 2.07118 8.24646 2.18399 8.36286 2.36726C8.72347 2.93508 8.63817 4.29439 8.10218 6.52097C8.76208 7.95176 9.63712 9.35136 10.4681 10.307C10.7749 10.2703 11.0665 10.2516 11.3364 10.2516C12.0012 10.2516 12.5566 10.3667 12.9424 10.5845C13.312 10.793 13.524 11.0968 13.524 11.4178C13.524 11.7994 13.1997 12.1859 12.5801 12.1859C12.1842 12.1859 11.7326 12.026 11.2741 11.7235C10.9627 11.518 10.6297 11.2236 10.2831 10.8473C9.79076 10.9202 9.25088 11.0406 8.67599 11.2056C7.86889 11.4373 7.12545 11.6861 6.46439 11.9458L6.45913 11.9608C6.45688 11.9672 6.45425 11.9735 6.45152 11.9798C5.19978 14.7705 4.2523 16.0153 3.37959 16.0153ZM5.79982 12.2226C3.20216 13.3709 2.82937 14.3918 2.7777 14.692C2.73461 14.9424 2.80431 15.1539 2.98496 15.3206C3.11852 15.4439 3.24749 15.5038 3.37949 15.5038C3.79167 15.5039 4.54067 14.9199 5.79982 12.2226ZM10.9115 10.7782C11.1291 10.9895 11.3373 11.1611 11.5336 11.2907C12.0146 11.6079 12.3681 11.6745 12.5801 11.6745C12.8798 11.6745 13.0365 11.5453 13.0365 11.4178C13.0365 11.3213 12.9512 11.17 12.7116 11.0348C12.4919 10.9107 12.0748 10.7629 11.3365 10.7629C11.2007 10.7628 11.0588 10.7679 10.9115 10.7782ZM7.91442 7.26623C7.49357 8.86997 6.97903 10.4447 6.68169 11.319C7.25472 11.1073 7.88001 10.9039 8.54741 10.7123C9.01925 10.5768 9.46944 10.4703 9.89157 10.3941C9.20018 9.54558 8.49593 8.43111 7.91442 7.26623ZM7.65686 2.53407C7.41158 2.53407 7.31721 2.64401 7.2674 2.72665C6.99989 3.17164 7.19984 4.32691 7.77492 5.76231C8.249 3.57858 8.10033 2.87617 7.95722 2.65076C7.90652 2.57099 7.85573 2.5535 7.81284 2.54685C7.75756 2.53836 7.70511 2.53407 7.65686 2.53407Z" fill="#CD1518"/>
<path d="M19.3379 12.4851H20.5761V13.7944H19.3379V12.4851Z" fill="#CD1518"/>
<path d="M21.4728 6.53247H24.1441C25.4408 6.53247 26.3475 7.48371 26.3475 8.89517C26.3475 10.3066 25.4408 11.2884 24.1441 11.2884H22.7305V13.7943H21.4728V6.53247ZM23.9102 10.143C24.6413 10.143 25.0703 9.65199 25.0703 8.89517C25.0703 8.14858 24.6413 7.6679 23.9297 7.6679H22.7305V10.143H23.9102Z" fill="#CD1518"/>
<path d="M27.2001 6.53247H29.5594C31.6944 6.53247 33.0886 7.86202 33.0886 10.153C33.0886 12.444 31.6944 13.7943 29.5594 13.7943H27.2001V6.53247ZM29.4911 12.6591C30.895 12.6591 31.792 11.7898 31.792 10.1532C31.792 8.53722 30.8757 7.6679 29.4911 7.6679H28.4577V12.6591H29.4911Z" fill="#CD1518"/>
<path d="M34.0223 6.53247H38.0002V7.6679H35.2801V9.72379H37.5712V10.8591H35.2801V13.7946H34.0225L34.0223 6.53247Z" fill="#CD1518"/>
</g>
<defs>
<clipPath id="clip0_207_998">
<rect width="38" height="18" fill="white"/>
</clipPath>
</defs>
</svg>
