<svg width="48" height="64" viewBox="0 0 48 64" fill="none" xmlns="http://www.w3.org/2000/svg">
<mask id="path-1-inside-1_482_2594" fill="white">
<path fill-rule="evenodd" clip-rule="evenodd" d="M36.7573 0H5C2.23858 0 0 2.23858 0 5V59C0 61.7614 2.23858 64 5 64H43C45.7614 64 48 61.7614 48 59V11.2427L36.7573 0Z"/>
</mask>
<path fill-rule="evenodd" clip-rule="evenodd" d="M36.7573 0H5C2.23858 0 0 2.23858 0 5V59C0 61.7614 2.23858 64 5 64H43C45.7614 64 48 61.7614 48 59V11.2427L36.7573 0Z" fill="white"/>
<path d="M36.7573 0L37.4644 -0.707107L37.1715 -1H36.7573V0ZM48 11.2427H49V10.8285L48.7071 10.5356L48 11.2427ZM5 1H36.7573V-1H5V1ZM1 5C1 2.79086 2.79086 1 5 1V-1C1.68629 -1 -1 1.68629 -1 5H1ZM1 59V5H-1V59H1ZM5 63C2.79086 63 1 61.2091 1 59H-1C-1 62.3137 1.68629 65 5 65V63ZM43 63H5V65H43V63ZM47 59C47 61.2091 45.2091 63 43 63V65C46.3137 65 49 62.3137 49 59H47ZM47 11.2427V59H49V11.2427H47ZM48.7071 10.5356L37.4644 -0.707107L36.0502 0.707107L47.2929 11.9498L48.7071 10.5356Z" fill="#CD1518" mask="url(#path-1-inside-1_482_2594)"/>
<path d="M33.5205 25H42.2438V27.47H36.2788V31.9424H41.3032V34.4121H36.2788V40.7978H33.5209L33.5205 25Z" fill="#CD1518"/>
<path d="M18.5596 25H23.7334C28.4155 25 31.4729 27.8923 31.4729 32.8761C31.4729 37.8599 28.4155 40.7974 23.7334 40.7974H18.5596V25ZM23.5837 38.3278C26.6625 38.3278 28.6295 36.4367 28.6295 32.8766C28.6295 29.3611 26.6201 27.47 23.5837 27.47H21.3174V38.3278H23.5837Z" fill="#CD1518"/>
<path d="M6 25H11.8581C14.7017 25 16.6901 27.0693 16.6901 30.1398C16.6901 33.2103 14.7017 35.3459 11.8581 35.3459H8.75804V40.7974H6V25ZM11.345 32.8543C12.9484 32.8543 13.8891 31.7862 13.8891 30.1398C13.8891 28.5157 12.9484 27.47 11.3878 27.47H8.75804V32.8543H11.345Z" fill="#CD1518"/>
<path d="M39.7319 12.102C37.5212 12.102 35.7234 10.3436 35.7234 8.18258V1.41426C35.7234 1.12745 35.9004 0.869204 36.1715 0.760024C36.2609 0.724385 36.3543 0.706848 36.4466 0.706848C36.6361 0.706848 36.8221 0.779541 36.9606 0.91644L47.0676 10.8971C47.273 11.0999 47.3335 11.4034 47.2212 11.6667C47.109 11.9303 46.8458 12.1018 46.5539 12.1018L39.7319 12.102Z" fill="white"/>
<path d="M36.4464 1.41425L46.5537 11.3949H39.7317C37.9173 11.3949 36.4464 9.95633 36.4464 8.18258V1.41425ZM36.4461 0C36.261 0 36.0741 0.0347906 35.8965 0.106352C35.3541 0.324429 35 0.841197 35 1.41425V8.18258C35 10.7339 37.1227 12.8092 39.7317 12.8092H46.5537C47.1374 12.8092 47.6639 12.4661 47.8887 11.9394C48.1131 11.4127 47.9919 10.8054 47.5812 10.4001L37.4739 0.419184C37.197 0.145385 36.825 0 36.4461 0Z" fill="#CD1518"/>
</svg>
