<svg width="14" height="20" viewBox="0 0 14 20" fill="none" xmlns="http://www.w3.org/2000/svg">
<path d="M13.5 6.64554C13.5 7.44398 13.1072 8.64974 12.4522 10.0712C11.8072 11.4708 10.943 13.0072 10.0727 14.4394C9.20344 15.8699 8.3334 17.1877 7.68026 18.1484C7.41144 18.5438 7.17961 18.8783 7 19.1349C6.82039 18.8783 6.58856 18.5438 6.31974 18.1484C5.6666 17.1877 4.79656 15.8699 3.92729 14.4394C3.05699 13.0072 2.19283 11.4708 1.54785 10.0712C0.892758 8.64974 0.5 7.44398 0.5 6.64554C0.5 3.27569 3.38543 0.5 7 0.5C10.6146 0.5 13.5 3.27569 13.5 6.64554Z" stroke="black"/>
<path d="M8.96391 5.48815C10.0486 6.51789 10.0486 8.18743 8.96391 9.21718C7.87925 10.2469 6.12065 10.2469 5.03599 9.21717C3.95132 8.18743 3.95132 6.51789 5.03599 5.48815C6.12065 4.4584 7.87925 4.4584 8.96391 5.48815Z" stroke="black"/>
</svg>
