<svg width="24" height="24" viewBox="0 0 24 24" fill="none" xmlns="http://www.w3.org/2000/svg">
<path fill-rule="evenodd" clip-rule="evenodd" d="M9.2755 10.2144C10.089 12.4207 11.5956 13.9338 13.8051 14.744C14.4537 14.3869 14.6166 13.4163 15.4371 13.3452C15.8749 13.3072 16.5065 13.6523 16.8693 13.8448C17.6608 14.2647 18.4015 14.7508 19.2006 15.3103C19.5628 15.5638 20.0023 15.9113 20 16.4094C19.9979 16.865 19.5663 17.2646 19.2673 17.5751C18.5604 18.3089 18.0876 18.7315 17.2356 19.3403C16.8485 19.6169 16.4029 19.9577 16.0366 20.0064C15.3086 20.1032 14.257 19.6724 13.6053 19.4069C10.1165 17.9858 7.46139 15.4097 5.61188 12.3794C5.25879 11.8009 4.92672 11.1633 4.61267 10.381C4.34472 9.71345 3.91973 8.68612 4.01318 7.98301C4.06168 7.61802 4.43604 7.17059 4.67929 6.81728C4.96056 6.40872 5.1824 6.09739 5.44533 5.7848C5.95271 5.18162 6.58462 4.36699 7.37705 4.0529C8.03445 3.79233 8.5262 4.55686 8.8092 4.98545C9.32293 5.7634 9.75027 6.39109 10.208 7.25027C10.4105 7.63032 10.7136 8.21165 10.6743 8.61581C10.5935 9.44839 9.60749 9.56262 9.2755 10.2144Z" stroke="white" stroke-width="2" stroke-miterlimit="10"/>
</svg>
