<svg width="30" height="30" viewBox="0 0 30 30" fill="none" xmlns="http://www.w3.org/2000/svg">
<path fill-rule="evenodd" clip-rule="evenodd" d="M11.5943 12.768C12.6112 15.5258 14.4945 17.4172 17.2563 18.43C18.0671 17.9836 18.2707 16.7704 19.2963 16.6815C19.8436 16.634 20.6331 17.0654 21.0865 17.306C22.076 17.8308 23.0018 18.4385 24.0008 19.1378C24.4535 19.4547 25.0028 19.8892 25 20.5117C24.9973 21.0812 24.4578 21.5807 24.084 21.9688C23.2004 22.8862 22.6094 23.4143 21.5445 24.1754C21.0606 24.5212 20.5036 24.9472 20.0457 25.008C19.1357 25.129 17.8213 24.5905 17.0066 24.2586C12.6455 22.4822 9.3267 19.2621 7.01482 15.4742C6.57346 14.7512 6.15836 13.9541 5.76581 12.9763C5.43087 12.1418 4.89963 10.8576 5.01644 9.97876C5.07706 9.52252 5.54502 8.96324 5.84908 8.52161C6.20067 8.01091 6.47797 7.62173 6.80663 7.231C7.44085 6.47703 8.23075 5.45874 9.22128 5.06612C10.043 4.74041 10.6577 5.69607 11.0115 6.23181C11.6536 7.20425 12.1878 7.98887 12.76 9.06284C13.0131 9.5379 13.3919 10.2646 13.3429 10.7698C13.2418 11.8105 12.0093 11.9533 11.5943 12.768Z" stroke="#CD1518" stroke-miterlimit="10"/>
</svg>
