<svg width="19" height="11" viewBox="0 0 19 11" fill="none" xmlns="http://www.w3.org/2000/svg">
<path fill-rule="evenodd" clip-rule="evenodd" d="M9.27041 10.9536H10.3462C10.3462 10.9536 10.6714 10.9153 10.8377 10.7241C10.9908 10.548 10.9852 10.2178 10.9852 10.2178C10.9852 10.2178 10.9645 8.67193 11.6344 8.44346C12.295 8.21902 13.1434 9.93805 14.0417 10.5993C14.722 11.0995 15.2378 10.9898 15.2378 10.9898L17.6413 10.9536C17.6413 10.9536 18.8985 10.87 18.3028 9.81124C18.2539 9.72468 17.9551 9.02822 16.5157 7.59603C15.0085 6.09741 15.2106 6.33997 17.0259 3.74834C18.1318 2.17021 18.5734 1.20602 18.4353 0.793376C18.3037 0.399851 17.49 0.503516 17.49 0.503516L14.784 0.521633C14.784 0.521633 14.5829 0.492445 14.4345 0.588059C14.2888 0.68166 14.1958 0.899054 14.1958 0.899054C14.1958 0.899054 13.7673 2.12089 13.1961 3.15956C11.9905 5.35162 11.5085 5.46737 11.3122 5.3315C10.8536 5.01446 10.9683 4.05732 10.9683 3.37695C10.9683 1.25232 11.2689 0.366638 10.3829 0.137166C10.0888 0.060675 9.87175 0.0113585 9.11913 0.00230041C8.15322 -0.00776417 7.33577 0.00531985 6.87348 0.248883C6.56529 0.409916 6.32758 0.770228 6.47321 0.791363C6.65174 0.816525 7.05671 0.908113 7.27187 1.22112C7.54906 1.62572 7.53966 2.53254 7.53966 2.53254C7.53966 2.53254 7.69939 5.03358 7.16758 5.34357C6.80301 5.55694 6.30221 5.12215 5.22824 3.13238C4.67764 2.11385 4.26233 0.987623 4.26233 0.987623C4.26233 0.987623 4.18247 0.777273 4.03965 0.66455C3.86582 0.527672 3.62434 0.484394 3.62434 0.484394L1.04984 0.504523C1.04984 0.504523 0.663662 0.515594 0.521782 0.69575C0.395876 0.855777 0.511447 1.1869 0.511447 1.1869C0.511447 1.1869 2.52501 6.23328 4.80448 8.77559C6.89603 11.1066 9.27041 10.9536 9.27041 10.9536Z" fill="white"/>
</svg>
