<svg width="16" height="13" viewBox="0 0 16 13" fill="none" xmlns="http://www.w3.org/2000/svg">
<path d="M14.5456 0.597631L1.1024 5.41175C0.3668 5.61293 0.390226 6.29978 0.934665 6.46462L4.30344 7.45899L5.59192 11.1963C5.74841 11.6058 5.87678 11.7591 6.14385 11.7626C6.42497 11.7662 6.53274 11.6696 6.8251 11.425C7.16713 11.121 7.68815 10.6433 8.51089 9.88643L12.0146 12.3351C12.6593 12.6719 13.125 12.4973 13.2853 11.7688L15.4818 1.49187C15.717 0.599412 15.1622 0.332642 14.5456 0.597631ZM4.83101 7.23034L12.4888 2.68653C12.8664 2.44724 12.9845 2.71401 12.8139 2.89835L6.45871 8.30535L6.13261 11.004L4.83101 7.23034Z" fill="#CD1518"/>
</svg>
