<svg width="15" height="15" viewBox="0 0 15 15" fill="none" xmlns="http://www.w3.org/2000/svg">
<path d="M7.49999 1.73095C9.37922 1.73095 9.60125 1.73851 10.3429 1.77158C11.0289 1.80276 11.4011 1.91708 11.6496 2.01345C11.9784 2.141 12.2127 2.29406 12.4584 2.53971C12.705 2.78631 12.8571 3.02062 12.9846 3.34847C13.081 3.59602 13.1953 3.96922 13.2265 4.65515C13.2605 5.39683 13.2671 5.61981 13.2671 7.4981C13.2671 9.37639 13.2596 9.59936 13.2265 10.341C13.1953 11.027 13.081 11.3992 12.9846 11.6477C12.8571 11.9765 12.705 12.2108 12.4584 12.4565C12.2118 12.7031 11.9775 12.8552 11.6496 12.9827C11.4021 13.0791 11.0289 13.1934 10.3429 13.2246C9.60125 13.2586 9.37828 13.2652 7.49999 13.2652C5.62075 13.2652 5.39871 13.2577 4.65703 13.2246C3.9711 13.1934 3.59884 13.0791 3.35036 12.9827C3.02156 12.8552 2.78726 12.7031 2.5416 12.4565C2.29501 12.2099 2.14289 11.9756 2.01534 11.6477C1.91896 11.4002 1.80465 11.027 1.77347 10.341C1.73946 9.59936 1.73284 9.37639 1.73284 7.4981C1.73284 5.61981 1.7404 5.39683 1.77347 4.65515C1.80465 3.96922 1.91896 3.59696 2.01534 3.34847C2.14289 3.01968 2.29501 2.78537 2.5416 2.53971C2.7882 2.29312 3.02251 2.141 3.35036 2.01345C3.5979 1.91708 3.9711 1.80276 4.65703 1.77158C5.39871 1.73851 5.6217 1.73095 7.49999 1.73095ZM7.49999 0.463013C5.58863 0.463013 5.34958 0.471516 4.59845 0.505529C3.84922 0.539543 3.33808 0.658589 2.89023 0.832435C2.42728 1.01195 2.03518 1.25288 1.64403 1.64403C1.25288 2.03518 1.01194 2.42728 0.832427 2.89024C0.658581 3.33808 0.539538 3.84923 0.505525 4.59846C0.471511 5.34865 0.463013 5.58863 0.463013 7.49999C0.463013 9.41135 0.471511 9.65038 0.505525 10.4015C0.539538 11.1507 0.658581 11.6619 0.832427 12.1097C1.01194 12.5727 1.25288 12.9648 1.64403 13.3559C2.03518 13.7471 2.42728 13.988 2.89023 14.1675C3.33808 14.3414 3.84922 14.4604 4.59845 14.4944C5.34864 14.5285 5.58863 14.537 7.49999 14.537C9.41134 14.537 9.65038 14.5285 10.4015 14.4944C11.1507 14.4604 11.6619 14.3414 12.1097 14.1675C12.5727 13.988 12.9648 13.7471 13.3559 13.3559C13.7471 12.9648 13.988 12.5727 14.1675 12.1097C14.3414 11.6619 14.4604 11.1507 14.4944 10.4015C14.5285 9.65133 14.537 9.41135 14.537 7.49999C14.537 5.58863 14.5285 5.34959 14.4944 4.59846C14.4604 3.84923 14.3414 3.33808 14.1675 2.89024C13.988 2.42728 13.7471 2.03518 13.3559 1.64403C12.9648 1.25288 12.5727 1.01195 12.1097 0.832435C11.6619 0.658589 11.1507 0.539543 10.4015 0.505529C9.65038 0.471516 9.41134 0.463013 7.49999 0.463013Z" fill="#CD1518"/>
<path d="M7.50005 3.88611C5.50461 3.88611 3.88708 5.50363 3.88708 7.49908C3.88708 9.49452 5.50461 11.112 7.50005 11.112C9.4955 11.112 11.113 9.49452 11.113 7.49908C11.113 5.50363 9.4955 3.88611 7.50005 3.88611ZM7.50005 9.84505C6.20471 9.84505 5.15502 8.79536 5.15502 7.50002C5.15502 6.20468 6.20471 5.15499 7.50005 5.15499C8.79539 5.15499 9.84508 6.20468 9.84508 7.50002C9.84508 8.79536 8.79539 9.84505 7.50005 9.84505Z" fill="#CD1518"/>
<path d="M11.2566 4.58801C11.7231 4.58801 12.1013 4.20984 12.1013 3.74335C12.1013 3.27685 11.7231 2.89868 11.2566 2.89868C10.7901 2.89868 10.4119 3.27685 10.4119 3.74335C10.4119 4.20984 10.7901 4.58801 11.2566 4.58801Z" fill="#CD1518"/>
</svg>
