<svg width="16" height="11" viewBox="0 0 16 11" fill="none" xmlns="http://www.w3.org/2000/svg">
<path d="M15.2782 1.76966C15.0946 0.930725 14.4424 0.311629 13.6571 0.218962C11.797 0.000109669 9.91438 -0.000876261 8.04021 0.000109559C6.1651 -0.000876261 4.28251 0.000109669 2.4224 0.218962C1.63712 0.311629 0.984908 0.930725 0.80124 1.76966C0.539794 2.96546 0.536987 4.2697 0.536987 5.5C0.536987 6.7303 0.53699 8.03553 0.797499 9.23034C0.981168 10.0693 1.63337 10.6884 2.41865 10.781C4.27876 10.9999 6.16136 11.0009 8.03647 10.9999C9.91063 11.0009 11.7942 10.9999 13.6533 10.781C14.4386 10.6884 15.0918 10.0703 15.2745 9.23034C15.5359 8.03454 15.5369 6.7303 15.5369 5.5C15.5378 4.2697 15.5387 2.96546 15.2782 1.76966ZM6.46404 7.65205V3.27599L10.4298 5.46353L6.46404 7.65205Z" fill="#CD1518"/>
</svg>
