<svg width="48" height="48" viewBox="0 0 48 48" fill="none" xmlns="http://www.w3.org/2000/svg">
<path fill-rule="evenodd" clip-rule="evenodd" d="M35.2218 0.144671C36.3733 -0.0692769 36.8506 -0.0259585 37.8448 0.144671C38.5801 0.301675 39.1182 0.393192 39.2499 0.982973C39.5553 2.34923 36.451 4.37503 35.8775 5.26784C33.7689 8.55149 36.2446 13.4548 40.936 12.8128C42.553 12.5915 43.5897 11.3849 44.6831 10.2977C45.2359 9.74794 45.9677 8.64545 46.8376 8.71419C47.807 8.79066 47.769 9.58259 47.9616 10.7634C48.0481 11.3194 47.9616 11.8191 47.9616 12.347C47.1922 18.4958 42.046 23.8494 34.6598 22.6863C34.1438 22.6052 33.5392 22.3819 32.88 22.2206C32.139 22.6015 31.7635 23.3458 31.1002 23.8041C30.2447 22.7075 27.9786 22.258 26.5101 23.0589C25.0815 21.654 23.5674 20.3343 22.2949 18.774C22.8276 18.3799 25.6971 15.7763 25.7607 15.1414C25.8094 14.6578 25.3809 13.743 25.2924 13.1853C24.1358 5.90195 29.2493 1.12371 35.2218 0.144671Z" fill="#909BA8"/>
<path fill-rule="evenodd" clip-rule="evenodd" d="M41.2169 47.8362C40.3614 48.0284 40.1058 48.0792 39.2498 47.8362C36.8759 47.0457 35.2311 44.9579 33.5356 43.2719C31.0034 40.7539 28.3057 38.0715 25.667 35.4475C24.5914 34.378 22.0868 32.5428 22.1074 31.1629C22.1223 30.1672 23.4389 29.5804 23.4188 29.1137C23.4113 28.9374 21.9278 27.6311 21.5454 27.2506C16.8998 22.6312 12.5111 18.326 8.0562 13.9305C6.09768 17.0342 -0.0785432 8.30377 0.0938707 6.94443C0.206359 6.05793 3.05865 3.11512 4.12197 3.03215C5.12373 2.95405 12.1884 7.68064 12.178 9.1799C12.171 10.1541 11.527 10.3662 11.0537 11.0428C16.2292 16.0494 21.2411 21.2194 26.4163 26.2258C26.9189 25.6623 27.4009 25.0017 28.3837 25.0149C29.7783 25.0336 31.708 27.5756 32.7862 28.6478C35.6275 31.4728 38.0521 33.884 40.8422 36.6584C42.1706 37.9791 43.9899 39.4247 44.683 40.9431C46.1818 44.2276 43.807 47.3272 41.2169 47.8362Z" fill="#909BA8"/>
<path fill-rule="evenodd" clip-rule="evenodd" d="M5.90154 47.8362C5.20023 48 4.7059 48 3.93423 47.8362C1.74909 47.2147 0.33092 45.8306 0 43.3651C0 43.1479 0 42.9305 0 42.7131C0.305968 39.9629 2.53835 38.5124 4.21545 36.845C7.47679 33.602 10.76 30.3372 14.0512 27.0643C14.4173 26.7003 15.6995 25.0947 16.0183 25.1083C16.0787 25.1109 16.807 25.8925 17.0487 26.1329C18.226 27.3035 19.2684 28.4003 20.2338 29.3932C19.2388 30.7488 19.9591 33.2034 20.8895 34.0504C17.621 37.2661 14.1244 40.6842 10.7725 44.0173C9.24081 45.5404 8.02226 47.2869 5.90154 47.8362Z" fill="#909BA8"/>
</svg>
