<svg width="48" height="48" viewBox="0 0 48 48" fill="none" xmlns="http://www.w3.org/2000/svg">
<path d="M23.9984 30.8569C29.4591 30.8569 33.9014 32.51 33.9014 34.5417C33.9014 36.573 29.4591 38.2254 23.9984 38.2254C18.5405 38.2254 14.0983 36.5723 14.0983 34.5417C14.0979 32.5097 18.5405 30.8569 23.9984 30.8569Z" fill="#EBEFF8"/>
<path d="M33.9162 35.2818C33.8217 35.4681 33.6481 35.6953 33.4826 35.8745C33.2463 36.1214 32.9475 36.3568 32.5911 36.5772V36.5776C30.8078 37.6811 27.6218 38.4177 23.9984 38.4177C18.4297 38.4177 13.8986 36.6778 13.8986 34.5424V36.9554C13.8986 39.0915 18.429 40.8311 23.9984 40.8311C27.6218 40.8311 30.8082 40.0934 32.5911 38.9903C32.9489 38.7691 33.2477 38.5334 33.4847 38.2854V38.2872C33.489 38.2833 33.4922 38.2794 33.4953 38.2755C33.4999 38.2702 33.5049 38.2664 33.5091 38.2618V38.2597C33.671 38.0829 33.8224 37.8801 33.9155 37.6956C34.0369 37.455 34.1 37.2077 34.1 36.9547V34.5417C34.1011 34.7946 34.0376 35.0419 33.9162 35.2818Z" fill="#909BA8"/>
<path d="M23.9984 30.6692C29.5674 30.6692 34.1014 32.4088 34.1014 34.542C34.1014 36.6781 29.5671 38.4174 23.9984 38.4174C18.429 38.4174 13.8986 36.6774 13.8986 34.542C13.8986 32.4084 18.4294 30.6692 23.9984 30.6692ZM23.9984 38.2258C29.4591 38.2258 33.9014 36.5727 33.9014 34.542C33.9014 32.5097 29.4591 30.8572 23.9984 30.8572C18.5405 30.8572 14.0983 32.5104 14.0983 34.542C14.0979 36.573 18.5405 38.2258 23.9984 38.2258Z" fill="#909BA8"/>
<path d="M23.9984 26.415C29.4591 26.415 33.9014 28.0681 33.9014 30.0994C33.9014 32.1308 29.4591 33.7839 23.9984 33.7839C18.5405 33.7839 14.0983 32.1308 14.0983 30.0998C14.0979 28.0678 18.5405 26.415 23.9984 26.415Z" fill="#EBEFF8"/>
<path d="M33.9162 30.8399C33.8217 31.0255 33.6481 31.2534 33.4826 31.4326C33.2463 31.6792 32.9475 31.9148 32.5911 32.1353C30.8078 33.2392 27.6218 33.9758 23.9984 33.9758C18.4297 33.9758 13.8986 32.2359 13.8986 30.1001V32.5135C13.8986 34.6496 18.429 36.3888 23.9984 36.3888C27.6218 36.3888 30.8082 35.6515 32.5911 34.5484C32.9489 34.3272 33.2477 34.0915 33.4847 33.8435V33.8449C33.489 33.8414 33.4922 33.8372 33.4953 33.8333C33.4999 33.8283 33.5049 33.8241 33.5091 33.8199V33.8174C33.671 33.6403 33.8224 33.4382 33.9155 33.2537C34.0369 33.0131 34.1 32.7658 34.1 32.5128V30.0994C34.1011 30.3527 34.0376 30.6004 33.9162 30.8399Z" fill="#909BA8"/>
<path d="M23.9984 26.2273C29.5674 26.2273 34.1014 27.9665 34.1014 30.0998C34.1014 32.2362 29.5671 33.9755 23.9984 33.9755C18.429 33.9755 13.8986 32.2355 13.8986 30.0998C13.8986 27.9665 18.4294 26.2273 23.9984 26.2273ZM23.9984 33.7839C29.4591 33.7839 33.9014 32.1308 33.9014 30.0998C33.9014 28.0678 29.4591 26.4153 23.9984 26.4153C18.5405 26.4153 14.0983 28.0685 14.0983 30.0998C14.0979 32.1311 18.5405 33.7839 23.9984 33.7839Z" fill="#909BA8"/>
<path d="M23.9984 21.9727C29.4591 21.9727 33.9014 23.6259 33.9014 25.6572C33.9014 27.6885 29.4591 29.3413 23.9984 29.3413C18.5405 29.3413 14.0983 27.6878 14.0983 25.6572C14.0979 23.6259 18.5405 21.9727 23.9984 21.9727Z" fill="#EBEFF8"/>
<path d="M33.9162 26.3977C33.8217 26.584 33.6481 26.8112 33.4826 26.9904C33.2463 27.2377 32.9475 27.4726 32.5911 27.6931V27.6938C30.8078 28.797 27.6218 29.5336 23.9984 29.5336C18.4297 29.5336 13.8986 27.7937 13.8986 25.6579V28.0709C13.8986 30.2074 18.429 31.9466 23.9984 31.9466C27.6218 31.9466 30.8082 31.2093 32.5911 30.1061C32.9489 29.8849 33.2477 29.6493 33.4847 29.4013V29.4034C33.489 29.3992 33.4922 29.3956 33.4953 29.3911C33.4999 29.3861 33.5049 29.3826 33.5091 29.3773V29.3752C33.671 29.1988 33.8224 28.9956 33.9155 28.8114C34.0369 28.5705 34.1 28.3235 34.1 28.0702V25.6572C34.1011 25.9105 34.0376 26.1578 33.9162 26.3977Z" fill="#909BA8"/>
<path d="M23.9984 21.7854C29.5674 21.7854 34.1014 23.5246 34.1014 25.6575C34.1014 27.794 29.5671 29.5332 23.9984 29.5332C18.429 29.5332 13.8986 27.7933 13.8986 25.6575C13.8986 23.5246 18.4294 21.7854 23.9984 21.7854ZM23.9984 29.342C29.4591 29.342 33.9014 27.6885 33.9014 25.6579C33.9014 23.6262 29.4591 21.9734 23.9984 21.9734C18.5405 21.9734 14.0983 23.6266 14.0983 25.6579C14.0979 27.6889 18.5405 29.342 23.9984 29.342Z" fill="#909BA8"/>
<path d="M23.9984 17.5312C29.4591 17.5312 33.9014 19.1847 33.9014 21.216C33.9014 23.2473 29.4591 24.9005 23.9984 24.9005C18.5405 24.9005 14.0983 23.247 14.0983 21.216C14.0979 19.184 18.5405 17.5312 23.9984 17.5312Z" fill="#EBEFF8"/>
<path d="M33.9162 21.9561C33.8217 22.1428 33.6481 22.37 33.4826 22.5492C33.2463 22.7965 32.9475 23.0314 32.5911 23.2519V23.2526C30.8078 24.3558 27.6218 25.0924 23.9984 25.0924C18.4297 25.0924 13.8986 23.3521 13.8986 21.2164V23.6294C13.8986 25.7658 18.429 27.5054 23.9984 27.5054C27.6218 27.5054 30.8082 26.7681 32.5911 25.6649C32.9489 25.4438 33.2477 25.2081 33.4847 24.9601V24.9622C33.489 24.958 33.4922 24.9541 33.4953 24.9499C33.4999 24.9449 33.5049 24.941 33.5091 24.9361V24.934C33.671 24.7576 33.8224 24.5544 33.9155 24.3702C34.0369 24.1293 34.1 23.882 34.1 23.629V21.216C34.1011 21.4689 34.0376 21.7162 33.9162 21.9561Z" fill="#909BA8"/>
<path d="M23.9984 17.3435C29.5674 17.3435 34.1014 19.0827 34.1014 21.216C34.1014 23.3521 29.5671 25.092 23.9984 25.092C18.429 25.092 13.8986 23.3518 13.8986 21.216C13.8986 19.0827 18.4294 17.3435 23.9984 17.3435ZM23.9984 24.9005C29.4591 24.9005 33.9014 23.247 33.9014 21.216C33.9014 19.184 29.4591 17.5312 23.9984 17.5312C18.5405 17.5312 14.0983 19.1847 14.0983 21.216C14.0979 23.2473 18.5405 24.9005 23.9984 24.9005Z" fill="#909BA8"/>
<path d="M23.9988 13.0893C29.4595 13.0893 33.9017 14.7428 33.9017 16.7741C33.9017 18.8054 29.4595 20.4582 23.9988 20.4582C18.5409 20.4582 14.0986 18.8047 14.0986 16.7741C14.0983 14.7424 18.5409 13.0893 23.9988 13.0893Z" fill="#EBEFF8"/>
<path d="M33.9165 17.5143C33.822 17.7009 33.6484 17.9277 33.483 18.1073C33.2466 18.3543 32.9478 18.5892 32.5915 18.8097V18.8104C30.8082 19.9136 27.6222 20.6505 23.9988 20.6505C18.4301 20.6505 13.8989 18.9102 13.8989 16.7748V19.1879C13.8989 21.324 18.4297 23.0636 23.9988 23.0636C27.6222 23.0636 30.8085 22.3262 32.5915 21.2231C32.9492 21.0019 33.248 20.7659 33.4851 20.5182V20.5203C33.4893 20.5158 33.4925 20.5122 33.496 20.508C33.5003 20.5031 33.5052 20.4992 33.5094 20.4942V20.4921C33.6714 20.3157 33.8227 20.1125 33.9158 19.928C34.0372 19.6874 34.1004 19.4401 34.1004 19.1872V16.7741C34.1014 17.0271 34.0379 17.2744 33.9165 17.5143Z" fill="#909BA8"/>
<path d="M23.9988 12.902C29.5678 12.902 34.1018 14.6416 34.1018 16.7745C34.1018 18.9106 29.5674 20.6502 23.9988 20.6502C18.4297 20.6502 13.8989 18.9099 13.8989 16.7745C13.8989 14.6412 18.4294 12.902 23.9988 12.902ZM23.9988 20.4582C29.4595 20.4582 33.9017 18.8047 33.9017 16.7741C33.9017 14.7424 29.4595 13.0893 23.9988 13.0893C18.5409 13.0893 14.0986 14.7428 14.0986 16.7741C14.0983 18.8054 18.5409 20.4582 23.9988 20.4582Z" fill="#909BA8"/>
<path d="M23.9984 8.64777C29.4591 8.64777 33.901 10.3013 33.901 12.3326C33.901 14.3639 29.4588 16.0163 23.9984 16.0163C18.5405 16.0163 14.0983 14.3632 14.0983 12.3326C14.0983 10.3009 18.5405 8.64777 23.9984 8.64777Z" fill="#EBEFF8"/>
<path d="M33.9162 13.0727C33.8217 13.2594 33.6481 13.4862 33.4826 13.6654C33.2463 13.9127 32.9475 14.1477 32.5911 14.3682V14.3689C30.8078 15.472 27.6218 16.2086 23.9988 16.2086C18.4301 16.2086 13.8989 14.4687 13.8989 12.3333V14.7463C13.8989 16.8824 18.4297 18.622 23.9988 18.622C27.6222 18.622 30.8085 17.8847 32.5911 16.7815C32.9489 16.5603 33.2477 16.3247 33.4847 16.0767V16.0791C33.489 16.0746 33.4922 16.071 33.4953 16.0668C33.4999 16.0615 33.5049 16.058 33.5091 16.053V16.0509C33.671 15.8745 33.8224 15.6713 33.9155 15.4868C34.0369 15.2462 34.1 14.9989 34.1 14.746V12.3329C34.1011 12.5855 34.0376 12.8328 33.9162 13.0727Z" fill="#909BA8"/>
<path d="M23.9984 8.46045C29.5671 8.46045 34.1014 10.2 34.1014 12.3329C34.1014 14.469 29.5671 16.2083 23.9984 16.2083C18.429 16.2083 13.8986 14.4683 13.8986 12.3329C13.8986 10.1997 18.4294 8.46045 23.9984 8.46045ZM23.9984 16.0171C29.4591 16.0171 33.901 14.3639 33.901 12.3333C33.901 10.3016 29.4588 8.64848 23.9984 8.64848C18.5405 8.64848 14.0983 10.302 14.0983 12.3333C14.0983 14.3639 18.5405 16.0171 23.9984 16.0171Z" fill="#909BA8"/>
<path d="M23.9984 4.20657C29.4591 4.20657 33.901 5.85971 33.901 7.89139C33.901 9.92272 29.4588 11.5752 23.9984 11.5752C18.5405 11.5752 14.0983 9.92201 14.0983 7.89139C14.0983 5.85936 18.5405 4.20657 23.9984 4.20657Z" fill="#EBEFF8"/>
<path d="M33.9162 8.63117C33.8217 8.8178 33.6481 9.04464 33.4826 9.22385C33.2463 9.47115 32.9475 9.7061 32.5911 9.92659V9.9273C30.8078 11.0304 27.6218 11.7671 23.9988 11.7671C18.4301 11.7671 13.8989 10.0271 13.8989 7.89174V10.3048C13.8989 12.4409 18.4297 14.1801 23.9988 14.1801C27.6222 14.1801 30.8085 13.4431 32.5911 12.34C32.9489 12.1188 33.2477 11.8831 33.4847 11.6351V11.6372C33.489 11.633 33.4922 11.6295 33.4953 11.6252C33.4999 11.62 33.5049 11.6164 33.5091 11.6115V11.6094C33.671 11.433 33.8224 11.2298 33.9155 11.0453C34.0369 10.8047 34.1 10.5574 34.1 10.3044V7.89139C34.1011 8.14398 34.0376 8.39128 33.9162 8.63117Z" fill="#909BA8"/>
<path d="M23.9984 4.01889C29.5671 4.01889 34.1014 5.75811 34.1014 7.89139C34.1014 10.0275 29.5671 11.7667 23.9984 11.7667C18.429 11.7667 13.8986 10.0268 13.8986 7.89139C13.8986 5.75811 18.4294 4.01889 23.9984 4.01889ZM23.9984 11.5755C29.4591 11.5755 33.901 9.92236 33.901 7.89174C33.901 5.85971 29.4588 4.20692 23.9984 4.20692C18.5405 4.20692 14.0983 5.86006 14.0983 7.89174C14.0983 9.92236 18.5405 11.5755 23.9984 11.5755Z" fill="#909BA8"/>
<path d="M10.4526 34.9146C15.9133 34.9146 20.3556 36.5677 20.3556 38.5994C20.3556 40.6307 15.913 42.2831 10.4526 42.2831C4.9947 42.2831 0.552459 40.63 0.552459 38.5994C0.552106 36.5677 4.9947 34.9146 10.4526 34.9146Z" fill="#EBEFF8"/>
<path d="M20.3704 39.3395C20.2755 39.5261 20.1019 39.753 19.9368 39.9322C19.7005 40.1795 19.402 40.4144 19.0453 40.6349V40.6356C17.262 41.7388 14.076 42.4754 10.453 42.4754C4.88357 42.4754 0.352783 40.7355 0.352783 38.5997V41.0128C0.352783 43.1489 4.88322 44.8884 10.4526 44.8884C14.076 44.8884 17.262 44.1508 19.045 43.0476C19.4031 42.8264 19.7015 42.5908 19.9386 42.3428V42.3452C19.9432 42.3406 19.946 42.3371 19.9495 42.3329C19.9538 42.3276 19.959 42.3241 19.9633 42.3191V42.317C20.1252 42.1406 20.2762 41.9374 20.3697 41.7529C20.491 41.5123 20.5538 41.265 20.5538 41.0121V38.599C20.5553 38.8527 20.4917 39.1 20.3704 39.3395Z" fill="#909BA8"/>
<path d="M10.4526 34.7272C16.0216 34.7272 20.5553 36.4668 20.5553 38.6001C20.5553 40.7362 16.0213 42.4754 10.4526 42.4754C4.88322 42.4754 0.352783 40.7355 0.352783 38.5997C0.352783 36.4665 4.88357 34.7272 10.4526 34.7272ZM10.4526 42.2838C15.9133 42.2838 20.3556 40.6307 20.3556 38.6001C20.3556 36.5677 15.913 34.9153 10.4526 34.9153C4.9947 34.9153 0.552458 36.5688 0.552458 38.6001C0.552106 40.6311 4.9947 42.2838 10.4526 42.2838Z" fill="#909BA8"/>
<path d="M10.453 30.473C15.9137 30.473 20.3559 32.1262 20.3559 34.1575C20.3559 36.1888 15.9133 37.8412 10.453 37.8412C4.99505 37.8412 0.552812 36.1881 0.552812 34.1575C0.552459 32.1258 4.99505 30.473 10.453 30.473Z" fill="#EBEFF8"/>
<path d="M20.3707 34.8976C20.2758 35.0842 20.1023 35.3111 19.9372 35.4903C19.7008 35.7376 19.4024 35.9725 19.0457 36.193V36.1937C17.2624 37.2969 14.0764 38.0335 10.4533 38.0335C4.88428 38.0335 0.353489 36.2936 0.353489 34.1582V36.5712C0.353489 38.7073 4.88393 40.4465 10.4533 40.4465C14.0767 40.4465 17.2627 39.7092 19.0457 38.6061C19.4038 38.3849 19.7022 38.1492 19.9393 37.9012V37.9033C19.9439 37.8991 19.9467 37.8956 19.9502 37.8913C19.9545 37.886 19.9598 37.8825 19.964 37.8776V37.8751C20.1259 37.6987 20.2769 37.4959 20.3704 37.3114C20.4918 37.0708 20.5545 36.8235 20.5545 36.5705V34.1575C20.5556 34.4104 20.4921 34.6577 20.3707 34.8976Z" fill="#909BA8"/>
<path d="M10.453 30.2853C16.022 30.2853 20.5556 32.0246 20.5556 34.1578C20.5556 36.2939 16.0216 38.0332 10.453 38.0332C4.88357 38.0332 0.353136 36.2932 0.353136 34.1578C0.353136 32.0246 4.88393 30.2853 10.453 30.2853ZM10.453 37.8416C15.9137 37.8416 20.3559 36.1885 20.3559 34.1578C20.3559 32.1258 15.9133 30.4734 10.453 30.4734C4.99505 30.4734 0.552811 32.1265 0.552811 34.1578C0.552458 36.1888 4.99505 37.8416 10.453 37.8416Z" fill="#909BA8"/>
<path d="M10.4526 26.0315C15.9133 26.0315 20.3552 27.6846 20.3552 29.7156C20.3552 31.7473 15.9126 33.3997 10.4526 33.3997C4.9947 33.3997 0.552459 31.7466 0.552459 29.7156C0.552459 27.6843 4.9947 26.0315 10.4526 26.0315Z" fill="#EBEFF8"/>
<path d="M20.3704 30.4561C20.2755 30.6424 20.1019 30.8696 19.9368 31.0488C19.7005 31.2961 19.402 31.531 19.0453 31.7515V31.7522C17.262 32.8554 14.076 33.592 10.453 33.592C4.88393 33.592 0.353136 31.8521 0.353136 29.7163V32.1297C0.353136 34.2658 4.88357 36.005 10.453 36.005C14.0764 36.005 17.2624 35.2677 19.045 34.1646C19.4031 33.9434 19.7015 33.7077 19.9386 33.4597V33.4618C19.9432 33.4576 19.946 33.4541 19.9495 33.4495C19.9538 33.4445 19.959 33.441 19.9633 33.4357V33.4332C20.1252 33.2569 20.2762 33.0537 20.3697 32.8695C20.491 32.6289 20.5538 32.3816 20.5538 32.1283V29.7153C20.5553 29.9689 20.4917 30.2162 20.3704 30.4561Z" fill="#909BA8"/>
<path d="M10.4526 25.8442C16.0213 25.8442 20.5553 27.5834 20.5553 29.7163C20.5553 31.8528 16.0213 33.592 10.4526 33.592C4.88322 33.5916 0.352783 31.8521 0.352783 29.716C0.352783 27.583 4.88357 25.8442 10.4526 25.8442ZM10.4526 33.4004C15.9133 33.4004 20.3552 31.7473 20.3552 29.7163C20.3552 27.6846 15.9126 26.0322 10.4526 26.0322C4.9947 26.0322 0.552458 27.6854 0.552458 29.7163C0.552458 31.7473 4.9947 33.4004 10.4526 33.4004Z" fill="#909BA8"/>
<path d="M10.4526 21.59C15.9133 21.59 20.3552 23.2431 20.3552 25.2741C20.3552 27.305 15.9126 28.9582 10.4526 28.9582C4.9947 28.9582 0.552459 27.3047 0.552459 25.2741C0.552459 23.2431 4.9947 21.59 10.4526 21.59Z" fill="#EBEFF8"/>
<path d="M20.3704 26.0146C20.2755 26.2009 20.1019 26.428 19.9368 26.6073C19.7005 26.8546 19.402 27.0895 19.0453 27.31V27.3107C17.262 28.4139 14.076 29.1505 10.453 29.1505C4.88393 29.1505 0.353136 27.4105 0.353136 25.2748V27.6878C0.353136 29.8243 4.88357 31.5635 10.453 31.5635C14.0764 31.5635 17.2624 30.8262 19.045 29.723C19.4031 29.5018 19.7015 29.2662 19.9386 29.0182V29.0203C19.9432 29.0161 19.946 29.0122 19.9495 29.0079C19.9538 29.003 19.959 28.9995 19.9633 28.9942V28.9917C20.1252 28.8153 20.2762 28.6121 20.3697 28.428C20.491 28.187 20.5538 27.9401 20.5538 27.6868V25.2737C20.5553 25.5274 20.4917 25.7747 20.3704 26.0146Z" fill="#909BA8"/>
<path d="M10.4526 21.4026C16.0213 21.4026 20.5553 23.1419 20.5553 25.2748C20.5553 27.4112 16.0213 29.1505 10.4526 29.1505C4.88322 29.1505 0.352783 27.4105 0.352783 25.2744C0.352783 23.1415 4.88357 21.4026 10.4526 21.4026ZM10.4526 28.9589C15.9133 28.9589 20.3552 27.3054 20.3552 25.2748C20.3552 23.2431 15.9126 21.5907 10.4526 21.5907C4.9947 21.5907 0.552458 23.2438 0.552458 25.2748C0.552458 27.3058 4.9947 28.9589 10.4526 28.9589Z" fill="#909BA8"/>
<path d="M37.0514 37.2345C42.5121 37.2345 46.9543 38.8876 46.9543 40.9189C46.9543 42.9503 42.5121 44.6027 37.0514 44.6027C31.5935 44.6027 27.1512 42.9496 27.1512 40.9189C27.1516 38.8873 31.5935 37.2345 37.0514 37.2345Z" fill="#EBEFF8"/>
<path d="M46.9695 41.6591C46.875 41.8457 46.7014 42.0725 46.5359 42.2517C46.2996 42.499 46.0008 42.734 45.6445 42.9545V42.9552C43.8611 44.0583 40.6752 44.7949 37.0521 44.7949C31.4831 44.7949 26.9523 43.055 26.9523 40.9196V43.3327C26.9523 45.4688 31.4831 47.208 37.0521 47.208C40.6755 47.208 43.8618 46.4707 45.6445 45.3675C46.0022 45.1463 46.301 44.9107 46.5381 44.6626V44.6648C46.5423 44.6605 46.5455 44.657 46.549 44.6528C46.5532 44.6475 46.5582 44.6439 46.5624 44.639V44.6365C46.7243 44.4602 46.8757 44.2573 46.9688 44.0728C47.0902 43.8322 47.1533 43.5849 47.1533 43.332V40.9189C47.1544 41.1719 47.0909 41.4192 46.9695 41.6591Z" fill="#909BA8"/>
<path d="M37.0514 37.0468C42.6204 37.0468 47.1547 38.786 47.1547 40.9193C47.1547 43.0554 42.6204 44.7946 37.0514 44.7946C31.482 44.7946 26.9516 43.0547 26.9516 40.9193C26.9516 38.786 31.4827 37.0468 37.0514 37.0468ZM37.0514 44.603C42.5121 44.603 46.9543 42.9499 46.9543 40.9193C46.9543 38.8873 42.5121 37.2348 37.0514 37.2348C31.5935 37.2348 27.1512 38.888 27.1512 40.9193C27.1516 42.9503 31.5935 44.603 37.0514 44.603Z" fill="#909BA8"/>
<path d="M37.0514 32.7929C42.5121 32.7929 46.954 34.4461 46.954 36.4771C46.954 38.5087 42.5118 40.1612 37.0514 40.1612C31.5935 40.1612 27.1512 38.508 27.1512 36.4771C27.1512 34.4457 31.5935 32.7929 37.0514 32.7929Z" fill="#EBEFF8"/>
<path d="M46.9692 37.2175C46.8746 37.4038 46.701 37.631 46.5356 37.8102C46.2992 38.0575 46.0004 38.2925 45.6441 38.513V38.5137C43.8608 39.6168 40.6748 40.3534 37.0517 40.3534C31.4831 40.3534 26.9519 38.6135 26.9519 36.4778V38.8911C26.9519 41.0272 31.4827 42.7665 37.0517 42.7665C40.6752 42.7665 43.8615 42.0291 45.6441 40.926C46.0018 40.7048 46.3006 40.4691 46.5377 40.2211V40.2233C46.5419 40.219 46.5451 40.2155 46.5486 40.2109C46.5529 40.206 46.5578 40.2024 46.5621 40.1971V40.195C46.724 40.0186 46.8753 39.8154 46.9685 39.6313C47.0898 39.3907 47.153 39.1434 47.153 38.8904V36.4771C47.154 36.7303 47.0905 36.9776 46.9692 37.2175Z" fill="#909BA8"/>
<path d="M37.0514 32.6056C42.6201 32.6056 47.1544 34.3448 47.1544 36.4778C47.1544 38.6142 42.6201 40.3534 37.0514 40.3534C31.482 40.3534 26.9516 38.6135 26.9516 36.4778C26.9516 34.3445 31.4824 32.6056 37.0514 32.6056ZM37.0514 40.1619C42.5121 40.1619 46.954 38.5087 46.954 36.4778C46.954 34.4461 42.5118 32.7937 37.0514 32.7937C31.5935 32.7937 27.1512 34.4468 27.1512 36.4778C27.1512 38.5087 31.5935 40.1619 37.0514 40.1619Z" fill="#909BA8"/>
<path d="M37.0514 28.3514C42.5121 28.3514 46.954 30.0045 46.954 32.0355C46.954 34.0665 42.5118 35.7196 37.0514 35.7196C31.5935 35.7196 27.1512 34.0661 27.1512 32.0355C27.1512 30.0045 31.5935 28.3514 37.0514 28.3514Z" fill="#EBEFF8"/>
<path d="M46.9692 32.776C46.8746 32.9623 46.701 33.1894 46.5356 33.3687C46.2992 33.616 46.0004 33.8509 45.6441 34.0714V34.0721C43.8608 35.1753 40.6748 35.9119 37.0517 35.9119C31.4831 35.9119 26.9519 34.1716 26.9519 32.0362V34.4492C26.9519 36.5857 31.4827 38.3249 37.0517 38.3249C40.6752 38.3249 43.8615 37.5876 45.6441 36.4844C46.0018 36.2632 46.3006 36.0276 46.5377 35.7796V35.7817C46.5419 35.7775 46.5451 35.7736 46.5486 35.7693C46.5529 35.7644 46.5578 35.7609 46.5621 35.7556V35.7535C46.724 35.5771 46.8753 35.3739 46.9685 35.1897C47.0898 34.9488 47.153 34.7018 47.153 34.4485V32.0355C47.154 32.2888 47.0905 32.5361 46.9692 32.776Z" fill="#909BA8"/>
<path d="M37.0514 28.1641C42.6201 28.1641 47.1544 29.9033 47.1544 32.0362C47.1544 34.1727 42.6201 35.9119 37.0514 35.9119C31.482 35.9119 26.9516 34.172 26.9516 32.0362C26.9516 29.9029 31.4824 28.1641 37.0514 28.1641ZM37.0514 35.7203C42.5121 35.7203 46.954 34.0668 46.954 32.0362C46.954 30.0045 42.5118 28.3521 37.0514 28.3521C31.5935 28.3521 27.1512 30.0052 27.1512 32.0362C27.1512 34.0672 31.5935 35.7203 37.0514 35.7203Z" fill="#909BA8"/>
</svg>
