<svg width="48" height="48" viewBox="0 0 48 48" fill="none" xmlns="http://www.w3.org/2000/svg">
<g clip-path="url(#clip0_358_1406)">
<path fill-rule="evenodd" clip-rule="evenodd" d="M0 5.73981C5.03919 5.73981 10.078 5.73981 15.1172 5.73981C17.4682 8.75824 19.3778 11.5756 21.69 14.7538C22.2802 15.5652 23.3488 17.4466 24.0374 17.6647C24.6918 17.8717 25.9999 17.6647 27.0421 17.6647C34.1429 17.6647 41.2385 17.6647 48.0748 17.6647C48.012 26.0528 48.1997 34.6908 47.9806 42.9223C45.5707 42.9223 43.1605 42.9223 40.7506 42.9223C40.7506 41.3574 40.7506 39.7924 40.7506 38.2275C39.7466 38.0423 38.7034 37.8959 37.6521 37.7579C37.5007 37.221 37.2404 36.793 37.0887 36.2554C37.6263 35.3847 38.2261 34.5758 38.8727 33.8145C36.9712 31.6159 34.8273 29.6594 32.7695 27.6174C31.9532 28.2137 31.0187 29.1778 30.1406 29.4015C29.6467 29.2381 29.2184 29.0092 28.7323 28.8381C28.7139 27.6982 28.3749 26.8791 28.3569 25.7396C25.4775 25.7396 22.5977 25.7396 19.7186 25.7396C19.5764 26.787 19.4021 27.8016 19.249 28.8381C18.7657 29.0745 18.2302 29.2586 17.7469 29.4953C16.9616 28.8409 16.0242 28.3382 15.3056 27.6174C14.206 28.5107 13.1529 29.5818 12.1132 30.6221C11.0683 31.6674 9.93232 32.7053 9.20241 33.8148C9.79333 34.6633 10.4954 35.4013 10.9864 36.3499C10.6838 36.7359 10.6047 37.3455 10.3292 37.7583C9.28214 37.9004 8.26718 38.0747 7.23069 38.2278C7.23069 39.7928 7.23069 41.3577 7.23069 42.9227C4.82081 42.9227 2.41094 42.9227 0.000705571 42.9227C0 30.5279 0 18.1339 0 5.73981Z" fill="#909BA8"/>
<path fill-rule="evenodd" clip-rule="evenodd" d="M20.657 8.36877C29.7959 8.36877 38.9355 8.36877 48.0748 8.36877C48.0748 10.5285 48.0748 12.6879 48.0748 14.8477C41.919 14.8477 34.8288 14.8477 28.2627 14.8477C27.2559 14.8477 26.0613 15.0392 25.4461 14.8477C24.8146 14.6508 23.4807 12.4946 23.0048 11.843C22.0276 10.5059 21.3495 9.52203 20.657 8.36877Z" fill="#909BA8"/>
<path fill-rule="evenodd" clip-rule="evenodd" d="M25.9149 28.5562C26.0659 29.3443 26.1675 30.1818 26.2906 30.9975C27.7953 31.4646 29.2949 31.937 30.4221 32.7815C31.1866 32.3571 31.8495 31.8308 32.4873 31.2794C33.419 32.1945 34.4354 33.0246 35.2105 34.096C34.6837 34.6647 34.2445 35.3209 33.8021 35.9739C34.4541 37.2937 35.1237 38.5961 35.4923 40.1992C36.3115 40.3505 37.1222 40.51 38.0274 40.5746C38.0274 41.3574 38.0274 42.1399 38.0274 42.922C36.0871 42.922 34.1465 42.922 32.2061 42.922C31.8512 38.0289 28.5806 34.4925 23.5678 34.7532C18.9971 34.9907 16.1805 38.2536 15.8683 42.922C13.928 42.922 11.9873 42.922 10.047 42.922C10.047 42.1395 10.047 41.357 10.047 40.5746C10.9007 40.4899 11.7185 40.3682 12.4882 40.1992C12.997 38.7365 13.4672 37.2347 14.2723 36.0677C13.8317 35.3191 13.3011 34.6605 12.7698 34.0022C13.5914 33.0398 14.5774 32.2421 15.3991 31.2794C16.148 31.72 16.8067 32.2502 17.4646 32.7815C18.7467 32.0922 20.0139 31.3873 21.6899 31.0917C21.8565 30.2877 22.0039 29.465 22.0653 28.5562C23.3487 28.5562 24.6318 28.5562 25.9149 28.5562Z" fill="#909BA8"/>
<path fill-rule="evenodd" clip-rule="evenodd" d="M29.3891 42.9224C25.79 42.9224 22.1909 42.9224 18.5914 42.9224C18.8486 40.0405 20.5512 37.8761 23.2863 37.5703C26.7891 37.1787 29.2099 39.5437 29.3891 42.9224Z" fill="#909BA8"/>
</g>
<defs>
<clipPath id="clip0_358_1406">
<rect width="48" height="48" fill="white"/>
</clipPath>
</defs>
</svg>
