<svg width="189" height="46" viewBox="0 0 189 46" fill="none" xmlns="http://www.w3.org/2000/svg">
<g clip-path="url(#clip0_507_4)">
<path fill-rule="evenodd" clip-rule="evenodd" d="M0 28.8398H126.457C130.038 28.8398 136.091 27.7763 137.378 23.8192C138.833 27.7763 144.41 28.8685 148.299 28.8398H188.991V22.6119H148.299C142.107 22.6119 138.46 20.0729 137.378 17.0643C136.035 20.0729 131.428 22.6119 126.457 22.6119H0V28.8398Z" fill="#CD1518"/>
<path fill-rule="evenodd" clip-rule="evenodd" d="M14.456 17.5626V13.5288L14.3814 11.6796L14.2228 9.92625H14.2508L16.3586 17.5626H18.9979L21.1057 9.92625H21.1337L20.9378 12.0725L20.8912 13.9217V17.553H24.3047V5.67214H19.7254L17.6829 13.0881L15.6404 5.67214H11.0612V17.5722H14.456V17.5626ZM32.7078 13.5193H30.3109L31.486 9.25556L32.7078 13.5193ZM29.1544 17.5626L29.5928 15.9912H33.37L33.8176 17.5626H37.5948L33.4539 5.67214H29.5928L25.4425 17.5722H29.1544V17.5626ZM49.7285 10.2137C49.4207 7.15725 47.4435 5.35596 43.9088 5.35596C40.6726 5.35596 38.1358 7.75129 38.1358 11.603C38.1358 15.4738 40.4487 17.8883 44.2819 17.8883C47.341 17.8883 49.4767 16.0391 49.8125 12.9635H46.1565C46.0166 14.1037 45.429 14.9852 44.2073 14.9852C42.2767 14.9852 41.9223 13.4139 41.9223 11.7467C41.9223 9.44719 42.7244 8.27827 44.0581 8.27827C45.2518 8.27827 46.0073 8.98728 46.1192 10.2329H49.7285V10.2137ZM50.7917 8.79566H54.2052V17.5722H58.0011V8.79566H61.4145V5.67214H50.7917V8.79566ZM72.7928 17.5626V14.784H66.9171V12.9156H71.6922V10.137H66.9171V8.44115H72.5596V5.66256H63.1213V17.5626H72.7928ZM78.2301 11.0856V8.44115H79.3119C80.114 8.44115 81.3358 8.58487 81.3358 9.6963C81.3358 10.7215 80.6922 11.0856 79.8062 11.0856H78.2301ZM78.2301 17.5626V13.8642H80.142C83.4715 13.8642 84.9544 12.2449 84.9544 9.68672C84.9544 7.24348 83.3503 5.67214 80.0207 5.67214H74.4435V17.5722H78.2301V17.5626ZM16.2373 40.9506C17.4498 40.9506 18.3264 41.0177 18.3264 42.0525C18.3264 42.9435 17.6176 43.1448 16.685 43.1448H15.0249V40.9506H16.2373ZM16.3679 36.8019C17.17 36.8019 17.9161 36.8211 17.9161 37.7409C17.9161 38.4403 17.3658 38.7852 16.6104 38.7852H15.0342V36.8019H16.3679ZM16.8808 45.9233C19.884 45.9233 21.8705 45.0035 21.8705 42.3399C21.8705 41.0464 21.199 39.9446 19.9399 39.6092C20.6767 39.1302 21.4508 38.2391 21.4508 37.0127C21.4508 34.6461 19.3803 34.0233 16.7689 34.0233H11.2384V45.9233H16.8808ZM38.9751 41.8704H36.5783L37.7534 37.6067L38.9751 41.8704ZM35.4218 45.9233L35.8508 44.352H39.628L40.0757 45.9233H43.8529L39.7026 34.0233H35.8415L31.6912 45.9233H35.4218ZM53.4684 37.1468H56.8819V45.9233H60.6777V37.1468H64.0912V34.0233H53.4684V37.1468ZM74.0145 37.1468H77.428V45.9233H81.2238V37.1468H84.6373V34.0233H74.0145V37.1468Z" fill="black"/>
<path d="M88.6104 16.7961H126.457C131.036 16.7961 135.224 14.6882 137.378 11.4689C139.542 14.6595 142.265 16.7961 148.299 16.7961M148.309 16.7961H177.417V6.33328H148.309C142.387 6.33328 139.439 4.1679 137.388 1.14978C135.233 4.1679 131.363 6.33328 126.466 6.33328M126.457 6.33328H88.6104V16.8057" stroke="black" stroke-width="1.3881" stroke-miterlimit="2.6131"/>
<path d="M88.6104 45.3293H126.457C131.036 45.3293 135.224 43.5472 137.378 40.2704C139.542 43.5184 142.265 45.3293 148.299 45.3293M148.309 45.3293H177.417V34.6653H148.309C142.387 34.6653 139.439 33.2856 137.388 30.21C135.233 33.2856 131.363 34.6653 126.466 34.6653M126.457 34.6653H88.6104V45.3197" stroke="black" stroke-width="1.3972" stroke-miterlimit="2.6131"/>
</g>
<defs>
<clipPath id="clip0_507_4">
<rect width="189" height="46" fill="white"/>
</clipPath>
</defs>
</svg>
